<?xml version="1.0" encoding="UTF-8" standalone="no"?>
<svg
   width="48"
   height="48"
   version="1.1"
   id="svg31"
   sodipodi:docname="diary_icon.svg"
   xml:space="preserve"
   inkscape:version="1.3.2 (091e20e, 2023-11-25, custom)"
   xmlns:inkscape="http://www.inkscape.org/namespaces/inkscape"
   xmlns:sodipodi="http://sodipodi.sourceforge.net/DTD/sodipodi-0.dtd"
   xmlns:xlink="http://www.w3.org/1999/xlink"
   xmlns="http://www.w3.org/2000/svg"
   xmlns:svg="http://www.w3.org/2000/svg"><sodipodi:namedview
     id="namedview31"
     pagecolor="#ffffff"
     bordercolor="#000000"
     borderopacity="0.25"
     inkscape:showpageshadow="2"
     inkscape:pageopacity="0.0"
     inkscape:pagecheckerboard="0"
     inkscape:deskcolor="#d1d1d1"
     inkscape:zoom="14.751252"
     inkscape:cx="23.930172"
     inkscape:cy="23.930172"
     inkscape:window-width="1245"
     inkscape:window-height="1000"
     inkscape:window-x="659"
     inkscape:window-y="0"
     inkscape:window-maximized="0"
     inkscape:current-layer="svg31" /><defs
     id="defs16"><linearGradient
       id="g"><stop
         offset="0"
         id="stop1" /><stop
         offset="1"
         stop-opacity="0"
         id="stop2" /></linearGradient><linearGradient
       id="e"><stop
         offset="0"
         stop-opacity="0"
         id="stop3" /><stop
         offset=".5"
         id="stop4" /><stop
         offset="1"
         stop-opacity="0"
         id="stop5" /></linearGradient><linearGradient
       id="f"><stop
         offset="0"
         stop-color="#fff"
         id="stop6" /><stop
         offset=".5"
         stop-color="#fff520"
         stop-opacity=".89108908"
         id="stop7" /><stop
         offset="1"
         stop-color="#fff300"
         stop-opacity="0"
         id="stop8" /></linearGradient><linearGradient
       id="d"><stop
         offset="0"
         stop-color="#fff"
         id="stop9" /><stop
         offset="1"
         stop-color="#fff"
         stop-opacity="0"
         id="stop10" /></linearGradient><linearGradient
       id="c"><stop
         offset="0"
         stop-color="#d6e3f0"
         id="stop11"
         style="stop-color:#f0e6d6;stop-opacity:1;" /><stop
         offset="1"
         stop-color="#95b1cf"
         id="stop12"
         style="stop-color:#cfba95;stop-opacity:1;" /></linearGradient><linearGradient
       id="b"><stop
         offset="0"
         stop-color="#fff"
         id="stop13" /><stop
         offset="1"
         stop-color="#cbcbcb"
         id="stop14" /></linearGradient><linearGradient
       id="a"><stop
         offset="0"
         stop-opacity=".06862745"
         id="stop15" /><stop
         offset="1"
         stop-color="#fff"
         id="stop16" /></linearGradient><linearGradient
       xlink:href="#a"
       id="m"
       x1="35.433035"
       x2="41.219128"
       y1="4.953005"
       y2="4.9530048"
       gradientTransform="matrix(.254 0 0 3.75981 .788629 .148567)"
       gradientUnits="userSpaceOnUse" /><linearGradient
       xlink:href="#b"
       id="k"
       x1="10.496115"
       x2="10.219901"
       y1="93.338043"
       y2="84.287079"
       gradientTransform="matrix(2.26274 0 0 .44194 1 -.875)"
       gradientUnits="userSpaceOnUse" /><linearGradient
       xlink:href="#c"
       id="l"
       x1="6.5871811"
       x2="14.511404"
       y1="22.132999"
       y2="22.132999"
       gradientTransform="matrix(.95775 0 0 1.02799 1 -.571911)"
       gradientUnits="userSpaceOnUse" /><linearGradient
       xlink:href="#d"
       id="n"
       x1="73.361984"
       x2="-2.7582901"
       y1="26.652197"
       y2="21.270376"
       gradientTransform="matrix(1.02543 0 0 .9573 0 -.806758)"
       gradientUnits="userSpaceOnUse" /><linearGradient
       xlink:href="#e"
       id="h"
       x1="302.85715"
       x2="302.85715"
       y1="366.64789"
       y2="609.50507"
       gradientTransform="matrix(2.77439 0 0 1.9697 -1892.179 -872.8854)"
       gradientUnits="userSpaceOnUse" /><radialGradient
       xlink:href="#f"
       id="o"
       cx="55"
       cy="125"
       r="14.375"
       fx="55"
       fy="125"
       gradientUnits="userSpaceOnUse"
       gradientTransform="matrix(0.61113,0,0,0.61113,-23.710068,-67.576249)" /><radialGradient
       xlink:href="#g"
       id="i"
       cx="605.71429"
       cy="486.64789"
       r="117.14286"
       fx="605.71429"
       fy="486.64789"
       gradientTransform="matrix(2.77439 0 0 1.9697 -1891.633 -872.8854)"
       gradientUnits="userSpaceOnUse" /><radialGradient
       xlink:href="#g"
       id="j"
       cx="605.71429"
       cy="486.64789"
       r="117.14286"
       fx="605.71429"
       fy="486.64789"
       gradientTransform="matrix(-2.77439 0 0 1.9697 112.7623 -872.8854)"
       gradientUnits="userSpaceOnUse" /><inkscape:perspective
       sodipodi:type="inkscape:persp3d"
       inkscape:vp_x="0 : 24 : 1"
       inkscape:vp_y="0 : 1000 : 0"
       inkscape:vp_z="48 : 24 : 1"
       inkscape:persp3d-origin="24 : 16 : 1"
       id="perspective108" /><linearGradient
       inkscape:collect="always"
       xlink:href="#d"
       id="linearGradient6724"
       gradientUnits="userSpaceOnUse"
       x1="284.80219"
       y1="-441.23294"
       x2="288.89954"
       y2="-436.83109" /><linearGradient
       inkscape:collect="always"
       xlink:href="#d"
       id="linearGradient6722"
       gradientUnits="userSpaceOnUse"
       x1="286.66589"
       y1="-439.48358"
       x2="289.76562"
       y2="-436.70703" /><linearGradient
       inkscape:collect="always"
       xlink:href="#d"
       id="linearGradient6720"
       gradientUnits="userSpaceOnUse"
       x1="275.94193"
       y1="-437.10501"
       x2="279.97546"
       y2="-431.91833" /><linearGradient
       inkscape:collect="always"
       xlink:href="#d"
       id="linearGradient6718"
       gradientUnits="userSpaceOnUse"
       x1="285.94086"
       y1="-439.93900"
       x2="289.39124"
       y2="-436.44290" /><linearGradient
       inkscape:collect="always"
       xlink:href="#d"
       id="linearGradient6716"
       gradientUnits="userSpaceOnUse"
       x1="286.51172"
       y1="-441.29074"
       x2="289.85379"
       y2="-436.14453" /><linearGradient
       inkscape:collect="always"
       xlink:href="#d"
       id="linearGradient6714"
       gradientUnits="userSpaceOnUse"
       x1="287.51730"
       y1="-439.75281"
       x2="289.67633"
       y2="-436.32199" /><linearGradient
       inkscape:collect="always"
       xlink:href="#d"
       id="linearGradient6712"
       gradientUnits="userSpaceOnUse"
       x1="271.02170"
       y1="-441.05182"
       x2="285.02859"
       y2="-431.96991" /><linearGradient
       id="linearGradient4083"><stop
         id="stop4085"
         offset="0"
         style="stop-color:#ffffff;stop-opacity:0;" /><stop
         style="stop-color:#ffffff;stop-opacity:0;"
         offset="0.75"
         id="stop4089" /><stop
         id="stop4087"
         offset="1"
         style="stop-color:#ffffff;stop-opacity:1;" /></linearGradient><linearGradient
       id="linearGradient4032"><stop
         id="stop4034"
         offset="0"
         style="stop-color:#fff7c2;stop-opacity:0.63829786" /><stop
         style="stop-color:#fcaf3e;stop-opacity:0.18348624;"
         offset="0.59394139"
         id="stop4036" /><stop
         id="stop4038"
         offset="0.83850551"
         style="stop-color:#fcaf3e;stop-opacity:0.50458717;" /><stop
         id="stop4040"
         offset="1"
         style="stop-color:#fcaf3e;stop-opacity:1;" /></linearGradient><linearGradient
       id="linearGradient4026"><stop
         id="stop4028"
         offset="0"
         style="stop-color:#fff9c6;stop-opacity:1" /><stop
         style="stop-color:#fff28c;stop-opacity:1;"
         offset="0.54166669"
         id="stop4042" /><stop
         id="stop4030"
         offset="1"
         style="stop-color:#ffea85;stop-opacity:1;" /></linearGradient><linearGradient
       inkscape:collect="always"
       xlink:href="#linearGradient4026"
       id="linearGradient3168"
       gradientUnits="userSpaceOnUse"
       x1="-28.968945"
       y1="-25.326815"
       x2="-37.19698"
       y2="-9.5590506" /><radialGradient
       inkscape:collect="always"
       xlink:href="#linearGradient4032"
       id="radialGradient4020"
       cx="-33.519073"
       cy="-22.113297"
       fx="-33.519073"
       fy="-22.113297"
       r="9.5"
       gradientUnits="userSpaceOnUse"
       gradientTransform="matrix(0.487739,1.292402,-1.10267,0.497242,-41.77393,32.41492)" /><radialGradient
       inkscape:collect="always"
       xlink:href="#linearGradient4083"
       id="radialGradient4081"
       cx="23.99999"
       cy="23.381506"
       fx="23.99999"
       fy="23.381506"
       r="19.141981"
       gradientTransform="matrix(1.006701,0,0,1.007522,-0.160816,0.426981)"
       gradientUnits="userSpaceOnUse" /></defs><path
     fill="#edd400"
     fill-rule="evenodd"
     stroke="#c4a000"
     stroke-linecap="round"
     stroke-linejoin="round"
     d="M33.096456 4.6520202h7.424621c.707107 0 1.237436.1767767 1.414213 1.0606598l.883884 6.894292c.088388 1.06066-.375651 1.414213-1.325825 1.414213h-8.57367l.176777-9.3691648z"
     color="#000"
     overflow="visible"
     style="marker:none"
     id="path16" /><path
     fill="none"
     stroke="#fff"
     stroke-linecap="round"
     stroke-linejoin="round"
     stroke-width="1.0000006"
     d="M34.10295 5.638875h6.360557c.308149 0 .476759.030162.522547.321598l.791435 6.383976c.069769.430972.182408.675355-.140278.689892h-7.673799l.139538-7.395466z"
     color="#000"
     opacity=".48538011"
     overflow="visible"
     style="marker:none"
     id="path17" /><path
     fill="#9db029"
     fill-rule="evenodd"
     stroke="#727e0a"
     stroke-linecap="round"
     stroke-linejoin="round"
     d="M35.596456 12.40202h7.424621c.707107 0 1.237436.176777 1.414213 1.06066l.883884 6.894292c.088388 1.06066-.375651 1.414213-1.325825 1.414213h-8.57367l.176777-9.369165z"
     color="#000"
     overflow="visible"
     style="marker:none"
     id="path18" /><path
     fill="none"
     stroke="#fff"
     stroke-linecap="round"
     stroke-linejoin="round"
     stroke-width="1.0000006"
     d="M36.60295 13.388875h6.360557c.308149 0 .476759.030162.522547.321598l.791435 6.383976c.069769.430972.182408.675355-.140278.689892h-7.673799l.139538-7.395466z"
     color="#000"
     opacity=".48538011"
     overflow="visible"
     style="marker:none"
     id="path19" /><path
     fill="#ef2929"
     fill-rule="evenodd"
     stroke="#c00"
     stroke-linecap="round"
     stroke-linejoin="round"
     stroke-width=".99999988"
     d="M36.06451 20.776498h8.44541c.804325 0 1.407567.219398 1.608649 1.316384l1.005406 8.556499c.10054 1.316384-.427298 1.755179-1.508109 1.755179h-9.752438l.201082-11.628062z"
     color="#000"
     overflow="visible"
     style="marker:none"
     id="path20" /><path
     fill="none"
     stroke="#fff"
     stroke-linecap="round"
     stroke-linejoin="round"
     stroke-width="1.00000072"
     d="M37.209384 21.763574h7.235051c.350515 0 .542307.038354.59439.408939l.900247 8.117754c.079361.548017.207487.858771-.159564.877255h-8.728847l.158723-9.403948z"
     color="#000"
     opacity=".48538011"
     overflow="visible"
     style="marker:none"
     id="path21" /><g
     color="#000"
     transform="matrix(.02165 0 0 .04308 43.08625 34.04509)"
     id="g24"><path
       fill="url(#h)"
       d="M-1559.2523-150.69685h1339.6335v478.35718h-1339.6335z"
       opacity=".40206185"
       overflow="visible"
       style="marker:none"
       id="path22" /><path
       fill="url(#i)"
       d="m -219.61876,-150.68038 v 478.33079 c 77.8396,0.49058 173.385091,-31.36353 244.23931,-81.81457 C 83.818872,203.68427 125.78142,148.55109 125.78138,88.454235 125.7813,-43.572302 -33.655436,-150.68036 -219.61876,-150.68038 Z"
       opacity="0.402062"
       overflow="visible"
       style="marker:none"
       id="path23"
       sodipodi:nodetypes="ccssc" /><path
       fill="url(#j)"
       d="M-1559.2523-150.68038v478.33079c-142.8742.90045-345.4002-107.16966-345.4002-239.196175 0-132.026537 159.4368-239.134595 345.4002-239.134615z"
       opacity=".40206185"
       overflow="visible"
       style="marker:none"
       id="path24" /></g><path
     fill="#5b6b94"
     stroke="#364878"
     stroke-linecap="round"
     stroke-linejoin="round"
     stroke-width="1"
     d="M 6.2535569,5.2474382 C 6.3446134,3.3189677 7.2642496,2.2622618 8.9763001,2.2569875 l 29.4153459,-0.09062 c 0.247329,-7.619e-4 0.570256,0.2015584 0.595026,0.4530985 l 3.268306,33.190259 -1.319269,0.05703 0.631138,6.49103 c 0.0612,0.629383 -0.181917,1.167465 -1.07466,1.17171 L 9.6888689,43.675961 C 7.5256812,43.686248 5.3113072,42.160916 4.7772982,40.106267 4.6842324,39.748188 4.6422038,39.374032 4.6603779,38.989126 Z"
     color="#000000"
     overflow="visible"
     style="fill:#b2af55;fill-opacity:1;stroke:#787636;stroke-opacity:1;marker:none"
     id="path25"
     sodipodi:nodetypes="sssccccscsss" /><path
     fill="url(#k)"
     d="M40.125 34.875 10.9375 35c-1.5565181.177868-2.8125 1.39612-2.8125 3s1.2559819 2.822132 2.8125 3l29.1875.125v-.0625c-1.655622-.078152-3-1.387649-3-3.0625s1.344378-2.984348 3-3.0625v-.0625z"
     color="#000"
     overflow="visible"
     style="marker:none"
     id="path26" /><path
     fill="url(#l)"
     d="M9.6875 2.8125c-1.7069103 0-2.637397 1.0090062-2.71875 2.8613658L5.3125 37.825772c-.09196 3.078427 1.8268732 4.828713 3.8125 5.330478-4.25-1.630671-3.6875-8.991795 1.625-8.961028h30.898286l-3.3125-30.9519788c-.025761-.2407128-.347908-.4307432-.59375-.4307432H9.6875z"
     color="#000"
     overflow="visible"
     style="marker:none"
     id="path27" /><path
     fill="url(#m)"
     d="M9.7886267 3.968539h2v29.604792h-2z"
     color="#000"
     opacity=".48044691"
     overflow="visible"
     style="marker:none"
     id="path28"
     transform="skewX(-2.053) scale(1 .99936)" /><path
     fill="none"
     stroke="url(#n)"
     stroke-linecap="round"
     stroke-miterlimit="20"
     stroke-width="1.00000012"
     d="M9.8751008 3.3336831c-1.6838994 0-2.3366772.7321628-2.4169335 2.5541479l-1.298904 29.889367c.9333283-1.606747 2.4395958-2.182761 4.8524017-2.182761h29.951416L38.137179 3.7573631c-.022452-.2370539-.343218-.42368-.585745-.42368H9.8751008z"
     color="#000"
     overflow="visible"
     style="marker:none"
     id="path29" /><g
     id="layer1"
     inkscape:label="Layer 1"
     transform="matrix(0.5854651,0,0,0.60605826,7.6757752,-1.7926308)"><g
       id="g3936"
       transform="matrix(0.47378302,0,0,0.45030659,-6.1277609,3.0125288)"><g
         style="opacity:0.7"
         id="g4091"><path
           style="fill:#fce94f;fill-opacity:1;stroke:#fcaf3e;stroke-width:0.737329;stroke-linecap:square;stroke-linejoin:miter;stroke-miterlimit:4;stroke-dasharray:none;stroke-opacity:1"
           d="M 24,2.5 21.625,9.1875 C 22.399034,9.0641318 23.191406,9 24,9 c 0.808594,0 1.600966,0.064132 2.375,0.1875 z m -15.1875,6.28125 3.03125,6.4375 c 0.935284,-1.290181 2.084819,-2.439716 3.375,-3.375 z m 30.40625,0 -6.4375,3.0625 c 1.290181,0.935284 2.439716,2.084819 3.375,3.375 z M 9.1875,21.59375 2.5,23.96875 l 6.6875,2.375 C 9.0673373,25.57952 9,24.797813 9,24 9,23.180625 9.0608858,22.377571 9.1875,21.59375 Z M 38.8125,21.625 C 38.935868,22.399034 39,23.191406 39,24 c 0,0.808594 -0.06413,1.600966 -0.1875,2.375 L 45.5,24 Z M 11.84375,32.78125 8.8125,39.1875 15.21875,36.15625 c -1.290181,-0.935284 -2.439716,-2.084819 -3.375,-3.375 z m 24.3125,0 c -0.926461,1.27801 -2.068633,2.413549 -3.34375,3.34375 l 6.40625,3.0625 z M 21.625,38.8125 24,45.5 26.375,38.8125 C 25.600966,38.935868 24.808594,39 24,39 23.191406,39 22.399034,38.93587 21.625,38.8125 Z"
           id="path7492" /><path
           style="fill:none;fill-opacity:1;stroke:url(#radialGradient4081);stroke-width:0.846462;stroke-linecap:square;stroke-linejoin:miter;stroke-miterlimit:4;stroke-dasharray:none;stroke-opacity:1"
           d="M 24,5.25 22.65625,9.0625 C 23.098888,9.0231486 23.547187,9 24,9 c 0.452813,0 0.901112,0.023149 1.34375,0.0625 z M 10.78125,10.75 12.5,14.375 c 0.571538,-0.680911 1.224004,-1.336255 1.90625,-1.90625 z m 26.46875,0 -3.625,1.71875 c 0.679675,0.569439 1.336811,1.226575 1.90625,1.90625 z M 9.0625,22.625 5.28125,23.96875 9.0625,25.3125 C 9.024981,24.880146 9,24.442031 9,24 9,23.536406 9.0212735,23.077908 9.0625,22.625 Z m 29.875,0.03125 C 38.976851,23.098888 39,23.547187 39,24 c 0,0.452813 -0.02315,0.901112 -0.0625,1.34375 L 42.71875,24 Z m -3.40625,10.9375 c -0.572957,0.68579 -1.221265,1.363613 -1.90625,1.9375 L 37.25,37.25 Z M 12.5,33.625 10.78125,37.21875 14.375,35.5 C 13.702932,34.935884 13.064116,34.297068 12.5,33.625 Z M 22.65625,38.9375 24,42.71875 25.34375,38.9375 C 24.901112,38.976851 24.452813,39 24,39 23.547187,39 23.098888,38.97685 22.65625,38.9375 Z"
           id="path7494" /></g><g
         id="g4046"><g
           id="g3931"><path
             id="path7498"
             style="fill:#ffee54;stroke:#fcaf3e;stroke-width:0.759912;stroke-linecap:square"
             transform="matrix(0.778062,-1.061285,1.061287,0.778062,67.47952,3.641324)"
             d="m -22.5,-17.5 a 9.5,9.5 0 0 1 -9.5,9.5 9.5,9.5 0 0 1 -9.5,-9.5 9.5,9.5 0 0 1 9.5,-9.5 9.5,9.5 0 0 1 9.5,9.5 z" /><path
             id="path7500"
             style="fill:url(#radialGradient4020);stroke-width:1.01738;stroke-linecap:square"
             transform="matrix(1.244257,-0.167707,0.216642,1.251844,67.61648,40.527)"
             d="m -22.5,-17.5 a 9.5,9.5 0 0 1 -9.5,9.5 9.5,9.5 0 0 1 -9.5,-9.5 9.5,9.5 0 0 1 9.5,-9.5 9.5,9.5 0 0 1 9.5,9.5 z" /><path
             id="path7502"
             style="fill:none;stroke:url(#linearGradient3168);stroke-width:0.826019;stroke-linecap:square"
             transform="matrix(0.715791,-0.976349,0.97635,0.715792,64.00044,5.269544)"
             d="m -22.5,-17.5 a 9.5,9.5 0 0 1 -9.5,9.5 9.5,9.5 0 0 1 -9.5,-9.5 9.5,9.5 0 0 1 9.5,-9.5 9.5,9.5 0 0 1 9.5,9.5 z" /></g></g></g><g
       id="g6668"
       transform="matrix(1.0884851,0,0,1.0520497,-272.33469,504.94441)"><path
         sodipodi:nodetypes="ccsscsssscsscc"
         id="path6670"
         d="m 280.5,-445.5 c -2.27083,0 -4.10991,1.55028 -4.71875,3.625 -0.69323,-0.36383 -1.44451,-0.625 -2.28125,-0.625 -2.76,0 -5.00001,2.23999 -5,5 0,0.57893 0.16252,1.1077 0.34375,1.625 -1.37347,0.77074 -2.34375,2.189 -2.34375,3.875 0,2.484 2.016,4.50001 4.5,4.5 0.17713,0 18.82287,0 19,0 2.48399,0 4.5,-2.016 4.5,-4.5 0,-1.686 -0.97028,-3.10426 -2.34375,-3.875 0.18124,-0.51729 0.34375,-1.04608 0.34375,-1.625 0,-2.76 -2.24,-4.99999 -5,-5 -0.83674,0 -1.58802,0.26117 -2.28125,0.625 -0.60884,-2.07472 -2.44792,-3.625 -4.71875,-3.625 z"
         style="fill:#c4c5c2;fill-opacity:1;stroke:#888a85;stroke-width:1;stroke-linecap:butt;stroke-linejoin:miter;stroke-miterlimit:2;stroke-dasharray:none;stroke-dashoffset:0;stroke-opacity:1" /><path
         sodipodi:nodetypes="ccsscsssscsscc"
         id="path6672"
         d="m 280.5,-445 c -2.18972,0 -3.7236,1.33577 -4.39555,3.84352 -0.66846,-0.34362 -1.54759,-0.83335 -2.35445,-0.83335 -2.71651,0 -4.75514,1.93882 -4.75513,4.54554 0,0.54677 0.26721,1.33344 0.44196,1.82201 -1.32443,0.72795 -2.43683,1.8905 -2.43683,3.37255 0,2.34605 1.54617,4.25009 4.33928,4.25009 0.17081,0 18.15064,0 18.32144,0 2.77101,0 4.33928,-1.90404 4.33928,-4.25009 0,-1.59237 -1.1124,-2.66669 -2.43683,-3.39464 0.17476,-0.48856 0.46407,-1.25316 0.46407,-1.79992 0,-2.60671 -2.11581,-4.56763 -4.77723,-4.56764 -0.80687,0 -1.64181,0.48974 -2.31027,0.83336 C 284.29089,-443.60011 282.68973,-445 280.5,-445 Z"
         style="opacity:1;fill:url(#linearGradient6712);fill-opacity:1;stroke:none;stroke-width:1;stroke-linecap:butt;stroke-linejoin:miter;stroke-miterlimit:2;stroke-dasharray:none;stroke-dashoffset:0;stroke-opacity:1" /><g
         id="g6674"><path
           id="path6676"
           style="opacity:1;fill:#c4c5c2;stroke-miterlimit:2"
           transform="matrix(1.056604,0,0,1.056604,-24.19818,21.86331)"
           d="m 291.6875,-437.59375 a 3.3125,3.3125 0 0 1 -3.3125,3.3125 3.3125,3.3125 0 0 1 -3.3125,-3.3125 3.3125,3.3125 0 0 1 3.3125,-3.3125 3.3125,3.3125 0 0 1 3.3125,3.3125 z" /><path
           id="path6678"
           style="opacity:1;fill:url(#linearGradient6714);stroke-miterlimit:2"
           transform="matrix(1.056604,0,0,1.056604,-24.19818,21.86331)"
           d="m 291.6875,-437.59375 a 3.3125,3.3125 0 0 1 -3.3125,3.3125 3.3125,3.3125 0 0 1 -3.3125,-3.3125 3.3125,3.3125 0 0 1 3.3125,-3.3125 3.3125,3.3125 0 0 1 3.3125,3.3125 z" /></g><path
         id="rect6680"
         style="opacity:1;fill:#c4c5c2;stroke-miterlimit:2"
         d="m 271,-438 h 20 v 9 h -20 z" /><path
         id="path6682"
         style="opacity:1;fill:#c4c5c2;stroke-miterlimit:2"
         transform="matrix(0.90566,0,0,0.90566,9.830195,-35.68869)"
         d="m 291.6875,-437.59375 a 3.3125,3.3125 0 0 1 -3.3125,3.3125 3.3125,3.3125 0 0 1 -3.3125,-3.3125 3.3125,3.3125 0 0 1 3.3125,-3.3125 3.3125,3.3125 0 0 1 3.3125,3.3125 z" /><g
         id="g6684"><path
           id="path6686"
           style="opacity:1;fill:#c4c5c2;stroke-miterlimit:2"
           transform="matrix(1.056604,0,0,1.056604,-17.19811,24.86321)"
           d="m 291.6875,-437.59375 a 3.3125,3.3125 0 0 1 -3.3125,3.3125 3.3125,3.3125 0 0 1 -3.3125,-3.3125 3.3125,3.3125 0 0 1 3.3125,-3.3125 3.3125,3.3125 0 0 1 3.3125,3.3125 z" /><path
           id="path6688"
           style="opacity:1;fill:url(#linearGradient6716);stroke-miterlimit:2"
           transform="matrix(1.056604,0,0,1.056604,-17.19818,24.86331)"
           d="m 291.6875,-437.59375 a 3.3125,3.3125 0 0 1 -3.3125,3.3125 3.3125,3.3125 0 0 1 -3.3125,-3.3125 3.3125,3.3125 0 0 1 3.3125,-3.3125 3.3125,3.3125 0 0 1 3.3125,3.3125 z" /></g><g
         id="g6690"><path
           id="path6692"
           style="opacity:1;fill:#c4c5c2;stroke-miterlimit:2"
           transform="matrix(1.056604,0,0,1.056604,-31.19818,24.86331)"
           d="m 291.6875,-437.59375 a 3.3125,3.3125 0 0 1 -3.3125,3.3125 3.3125,3.3125 0 0 1 -3.3125,-3.3125 3.3125,3.3125 0 0 1 3.3125,-3.3125 3.3125,3.3125 0 0 1 3.3125,3.3125 z" /><path
           id="path6694"
           style="opacity:1;fill:url(#linearGradient6718);stroke-miterlimit:2"
           transform="matrix(1.056604,0,0,1.056604,-31.19818,24.86331)"
           d="m 291.6875,-437.59375 a 3.3125,3.3125 0 0 1 -3.3125,3.3125 3.3125,3.3125 0 0 1 -3.3125,-3.3125 3.3125,3.3125 0 0 1 3.3125,-3.3125 3.3125,3.3125 0 0 1 3.3125,3.3125 z" /></g><g
         transform="translate(-1)"
         id="g6696"><path
           style="opacity:1;fill:#c4c5c2;fill-opacity:1;stroke:none;stroke-width:1;stroke-linecap:butt;stroke-linejoin:miter;stroke-miterlimit:2;stroke-dasharray:none;stroke-dashoffset:0;stroke-opacity:1"
           d="m 280.46875,-440.96875 c -3.57938,0 -6.46875,2.92063 -6.46875,6.5 0,2.37068 1.34943,4.33779 3.25,5.46875 h 6.46875 c 1.90057,-1.13096 3.25,-3.12931 3.25,-5.5 0,-3.57938 -2.92063,-6.46875 -6.5,-6.46875 z"
           id="path6698" /><path
           style="opacity:1;fill:url(#linearGradient6720);fill-opacity:1;stroke:none;stroke-width:1;stroke-linecap:butt;stroke-linejoin:miter;stroke-miterlimit:2;stroke-dasharray:none;stroke-dashoffset:0;stroke-opacity:1"
           d="m 280.5,-441 c -3.588,0 -6.5,2.91201 -6.5,6.5 0,2.3764 1.34485,4.36632 3.25,5.5 h 6.5 c 1.90515,-1.13368 3.25,-3.1236 3.25,-5.5 0,-3.588 -2.912,-6.49999 -6.5,-6.5 z"
           id="path6700" /></g><path
         id="path6702"
         style="opacity:1;fill:url(#linearGradient6722);stroke-miterlimit:2"
         transform="matrix(0.90566,0,0,0.90566,9.830296,-35.68884)"
         d="m 291.6875,-437.59375 a 3.3125,3.3125 0 0 1 -3.3125,3.3125 3.3125,3.3125 0 0 1 -3.3125,-3.3125 3.3125,3.3125 0 0 1 3.3125,-3.3125 3.3125,3.3125 0 0 1 3.3125,3.3125 z" /><path
         sodipodi:nodetypes="ccss"
         id="path6704"
         d="m 292.9564,-437.33396 c -0.002,2.68456 -3.26926,3.71395 -3.26926,3.71395 0,0 2.34874,-1.62595 2.33685,-3.70501 z"
         style="fill:#888a85;fill-opacity:1;fill-rule:evenodd;stroke:none;stroke-width:1px;stroke-linecap:butt;stroke-linejoin:miter;stroke-opacity:1" /><g
         transform="matrix(1.142857,0,0,1.142857,-28.57139,67.00008)"
         id="g6706"><path
           id="path6708"
           style="opacity:1;fill:#c4c5c2;stroke-miterlimit:2"
           transform="matrix(1.056604,0,0,1.056604,-31.19818,24.86331)"
           d="m 291.6875,-437.59375 a 3.3125,3.3125 0 0 1 -3.3125,3.3125 3.3125,3.3125 0 0 1 -3.3125,-3.3125 3.3125,3.3125 0 0 1 3.3125,-3.3125 3.3125,3.3125 0 0 1 3.3125,3.3125 z" /><path
           id="path6710"
           style="opacity:1;fill:url(#linearGradient6724);stroke-miterlimit:2"
           transform="matrix(1.056604,0,0,1.056604,-31.19818,24.86331)"
           d="m 291.6875,-437.59375 a 3.3125,3.3125 0 0 1 -3.3125,3.3125 3.3125,3.3125 0 0 1 -3.3125,-3.3125 3.3125,3.3125 0 0 1 3.3125,-3.3125 3.3125,3.3125 0 0 1 3.3125,3.3125 z" /></g></g><path
       d="m 20.757624,19.638273 c 0,1.166321 -0.357037,2.064865 -1.071111,2.695631 -0.708124,0.630765 -1.660223,0.946148 -2.856297,0.946148 -0.28563,0 -0.66647,-0.02678 -1.142519,-0.08033 -0.476049,-0.04761 -0.874741,-0.107113 -1.196074,-0.178519 v -1.651297 h 0.09818 c 0.243975,0.08331 0.544481,0.169593 0.901518,0.258852 0.357037,0.08926 0.723001,0.133889 1.09789,0.133889 0.547457,0 0.981852,-0.06248 1.303185,-0.187444 0.327284,-0.124963 0.568284,-0.303482 0.723,-0.535556 0.160667,-0.238025 0.261827,-0.529605 0.303482,-0.874741 0.04761,-0.345136 0.07141,-0.743827 0.07141,-1.196074 V 11.212198 H 16.178623 V 9.801901 h 4.579001 z m 15.272262,3.454334 H 34.262552 V 11.640642 l -3.695334,7.792335 H 29.513959 L 25.845402,11.640642 V 23.092607 H 24.194106 V 9.801901 h 2.41 l 3.543594,7.399594 3.427556,-7.399594 h 2.45463 z m 13.228226,-3.793519 c 0,0.517704 -0.121988,1.029457 -0.365964,1.53526 -0.238025,0.505803 2.857886,12.398667 2.423491,12.749753 -0.47605,0.38084 -4.464553,-10.786049 -5.101269,-10.571827 -0.630765,0.214223 -1.392444,0.321334 -2.285037,0.321334 -0.95805,0 -1.82089,-0.08926 -2.588519,-0.267778 -0.761679,-0.178519 -1.538235,-0.443321 -2.329668,-0.794408 v -2.21363 h 0.124963 c 0.67242,0.559358 1.448976,0.990778 2.329668,1.29426 0.880691,0.303481 1.707827,0.455222 2.481407,0.455222 1.094914,0 1.945853,-0.205296 2.552816,-0.615889 0.612913,-0.410593 0.91937,-0.95805 0.91937,-1.642371 0,-0.589111 -0.14579,-1.023506 -0.43737,-1.303185 -0.28563,-0.279679 -0.723,-0.496877 -1.312111,-0.651593 -0.446297,-0.119013 -0.931272,-0.217198 -1.454927,-0.294556 -0.517703,-0.07736 -1.068135,-0.175543 -1.651296,-0.294555 -1.178223,-0.249926 -2.052964,-0.675395 -2.624223,-1.276408 -0.565309,-0.606963 -0.847963,-1.39542 -0.847963,-2.365371 0,-1.112765 0.470099,-2.02321 1.410296,-2.731334 0.940198,-0.7140741 2.133297,-1.0711111 3.579297,-1.0711111 0.934247,0 1.791137,0.089259 2.570668,0.2677779 0.779531,0.1785192 1.469802,0.3986912 2.070815,0.6605182 v 2.088668 H 48.597593 C 48.09179,12.14942 47.425321,11.795358 46.598185,11.515679 45.777,11.23005 44.934987,11.087235 44.072147,11.087235 c -0.946148,0 -1.707827,0.19637 -2.285037,0.589111 -0.571259,0.392741 -0.856889,0.898543 -0.856889,1.517408 0,0.553407 0.142815,0.987802 0.428444,1.303185 0.28563,0.315383 0.788457,0.556383 1.508482,0.723 0.38084,0.08331 0.922346,0.184469 1.624519,0.303482 0.702173,0.119012 1.297235,0.241 1.785186,0.365963 0.987803,0.261827 1.73163,0.657543 2.231482,1.187148 0.499852,0.529605 0.749778,1.270457 0.749778,2.222556 z"
       id="text37"
       style="font-size:18.2803px;fill:#fbfefe;stroke:#ccce18;stroke-width:1.52336"
       aria-label="JMS"
       transform="scale(1.0458497,0.95616035)"
       sodipodi:nodetypes="scsccccsscccsccccsccccccccccccccscccsccccsscscccccscssccccscsscscss" /></g></svg>
